<?xml version="1.0" standalone="no"?>
<!DOCTYPE svg PUBLIC "-//W3C//DTD SVG 20010904//EN"
 "http://www.w3.org/TR/2001/REC-SVG-20010904/DTD/svg10.dtd">
<svg version="1.0" xmlns="http://www.w3.org/2000/svg"
 width="564.000000pt" height="564.000000pt" viewBox="0 0 564.000000 564.000000"
 preserveAspectRatio="xMidYMid meet">

<g transform="translate(0.000000,564.000000) scale(0.100000,-0.100000)"
fill="#000000" stroke="none">
<path d="M2555 5169 c-105 -13 -190 -28 -297 -55 -96 -24 -234 -69 -253 -84
-5 -4 -25 -10 -42 -13 -48 -9 -293 -129 -373 -182 -67 -45 -85 -60 -57 -49 9
3 13 -6 14 -31 1 -36 -12 -48 -20 -17 -3 10 -5 6 -6 -11 -1 -20 5 -30 21 -36
l23 -8 -23 -7 c-12 -4 -22 -12 -22 -17 0 -12 -57 -12 -65 1 -3 6 0 10 7 10 7
0 21 7 32 15 18 14 18 14 0 14 -39 1 -54 5 -54 12 0 4 8 13 18 18 13 8 14 10
2 10 -8 1 -26 -8 -40 -19 -20 -16 -21 -19 -5 -14 11 4 17 4 14 0 -4 -4 -16 -9
-28 -11 -24 -4 -101 -62 -101 -75 0 -5 6 -11 13 -14 6 -3 3 -4 -9 -1 -13 3
-27 -2 -39 -15 -10 -11 -13 -20 -7 -20 7 0 4 -8 -5 -18 -21 -22 -32 -19 -13 3
22 27 -5 16 -33 -13 -15 -16 -24 -32 -20 -37 5 -4 3 -5 -3 -2 -11 6 -128 -109
-206 -204 -65 -78 -176 -244 -184 -274 -3 -14 -10 -25 -15 -25 -13 0 -143
-270 -183 -383 -102 -280 -142 -544 -133 -865 10 -374 85 -671 253 -1003 110
-217 263 -426 455 -620 l63 -64 8 30 c4 17 16 68 28 115 24 102 87 233 114
238 16 3 18 -1 14 -27 -5 -32 5 -42 16 -16 10 28 28 16 24 -15 -5 -34 -2 -36
24 -14 24 23 44 5 53 -46 4 -21 13 -44 21 -51 9 -7 22 -26 31 -43 9 -16 22
-36 29 -44 8 -7 14 -32 14 -55 0 -46 47 -150 63 -140 5 3 6 -3 2 -17 l-7 -23
31 22 c25 18 31 19 31 7 0 -8 9 -21 20 -29 11 -8 18 -16 15 -19 -7 -6 55 -182
67 -189 6 -4 5 -8 -2 -11 -10 -3 -10 -9 -1 -26 9 -17 9 -22 -1 -22 -26 -1 190
-100 219 -100 2 0 3 35 3 78 0 42 3 97 8 122 7 40 4 52 -24 108 -40 77 -47
118 -21 116 14 -2 17 7 17 57 0 33 4 59 10 59 6 0 10 9 10 21 0 11 -4 18 -9
15 -5 -3 -11 8 -13 24 -3 17 -1 30 4 30 4 0 8 -7 8 -16 0 -28 18 -5 25 33 6
32 9 35 15 18 4 -11 5 -24 2 -29 -2 -4 2 -34 9 -65 l14 -56 5 55 c3 37 9 54
18 53 7 -2 12 7 12 22 0 28 19 35 21 8 5 -93 5 -243 0 -236 -3 5 -13 12 -23
16 -9 3 -19 19 -23 36 -9 41 -21 31 -30 -22 -4 -23 -12 -45 -19 -49 -8 -5 -7
-11 2 -20 6 -6 12 -20 12 -31 0 -10 4 -16 9 -12 5 3 12 -3 16 -14 3 -11 12
-22 20 -25 11 -4 15 -22 15 -66 0 -54 -12 -79 -22 -48 -3 9 -6 9 -12 0 -4 -7
-2 -12 3 -12 6 0 11 -7 11 -15 0 -9 6 -18 14 -21 8 -3 17 -16 20 -30 10 -38
29 -30 22 9 -5 25 -1 40 14 58 11 13 23 29 28 34 15 18 21 44 11 47 -5 2 -6
40 -2 97 5 82 8 91 20 76 7 -11 13 -31 13 -46 0 -15 6 -30 13 -32 9 -4 9 -6 0
-6 -7 -1 -13 -5 -13 -11 0 -5 6 -9 13 -7 7 1 12 -10 12 -31 0 -18 6 -37 14
-41 7 -5 11 -13 8 -17 -2 -5 -1 -31 3 -59 6 -39 5 -52 -6 -58 -8 -5 -12 -12
-9 -17 3 -4 1 -20 -5 -34 -5 -15 -11 -40 -12 -56 -1 -17 -8 -30 -14 -30 -10 0
-24 -21 -24 -35 0 -2 15 -6 33 -10 17 -4 40 -9 51 -12 13 -4 16 -1 11 7 -13
20 -15 69 -5 75 6 3 10 24 10 46 0 21 5 39 10 39 6 0 10 -23 10 -51 0 -82 17
-127 51 -134 16 -3 42 -8 58 -11 16 -3 32 0 36 5 8 15 52 14 61 -1 5 -7 2 -8
-7 -3 -11 6 -11 5 -3 -4 7 -7 20 -11 30 -9 16 3 19 12 18 53 -1 72 -13 193
-24 234 -47 192 -63 250 -75 276 -8 17 -10 31 -5 33 6 2 6 8 0 15 -51 63 -64
84 -81 129 -11 29 -21 70 -24 91 -3 20 -11 52 -18 70 -8 17 -17 56 -21 86 -4
29 -13 63 -21 75 -14 21 -14 117 0 182 4 19 3 34 -4 38 -6 4 -11 17 -11 28 0
12 -12 50 -26 86 -14 35 -23 66 -21 69 3 2 18 -19 33 -47 16 -29 30 -47 32
-41 2 6 -6 28 -17 48 -28 50 -85 214 -66 189 8 -11 15 -14 15 -7 0 21 -49 117
-70 136 -23 21 -26 35 -6 35 9 0 12 7 9 20 -3 11 -9 18 -13 15 -4 -3 -16 27
-25 65 -9 39 -22 70 -28 70 -6 0 -7 3 -4 6 4 4 -2 19 -12 33 -17 23 -46 83
-66 136 -5 13 -9 16 -12 7 -3 -7 1 -19 7 -27 7 -9 8 -15 2 -15 -13 0 -42 62
-42 89 0 35 -49 121 -100 175 -26 28 -57 75 -70 106 -12 30 -27 64 -33 75 -6
11 -24 45 -41 75 -16 30 -34 58 -39 61 -8 6 -11 19 -21 104 -9 73 -36 120 -48
83 -3 -7 -7 -6 -11 5 -4 11 -1 17 8 17 11 0 15 12 15 43 -1 46 -18 77 -43 77
-11 0 -14 5 -10 16 5 13 7 13 14 2 6 -9 9 -7 9 9 0 12 5 25 10 28 6 4 10 -5
10 -21 0 -34 9 -26 20 18 13 56 44 133 56 140 7 4 15 19 18 33 4 14 11 23 16
20 5 -3 19 4 30 15 18 18 166 80 191 80 14 0 11 -22 -8 -42 -9 -10 -11 -18 -5
-18 6 0 13 6 15 13 4 9 8 9 16 -3 11 -16 5 -33 -10 -25 -5 4 -9 1 -9 -4 0 -6
5 -11 10 -11 6 0 -1 -12 -15 -27 -14 -15 -25 -32 -25 -37 0 -5 -8 -16 -18 -25
-20 -18 -27 -62 -10 -72 7 -5 7 -12 -1 -25 -10 -18 -10 -18 -11 1 0 16 -2 17
-10 5 -6 -9 -6 -18 0 -24 14 -14 12 -38 -2 -33 -7 2 -21 -3 -32 -12 -18 -15
-18 -15 -12 6 4 12 9 30 11 41 2 11 11 32 20 45 11 18 14 36 10 59 -6 30 -3
37 19 52 14 9 26 23 26 30 0 8 6 17 13 19 8 4 8 6 0 6 -6 1 -24 -9 -40 -22
-15 -13 -40 -30 -55 -40 -16 -10 -31 -32 -37 -54 -12 -41 -4 -161 11 -180 5
-7 8 -16 5 -20 -6 -9 12 -81 31 -126 7 -16 12 -33 12 -38 0 -6 4 -7 10 -4 6 3
7 -1 4 -9 -3 -9 -1 -16 5 -16 15 0 32 -36 25 -54 -3 -8 -12 -12 -21 -9 -23 9
4 -31 30 -43 11 -5 19 -13 19 -19 0 -5 5 -17 12 -25 7 -8 16 -23 19 -32 4 -10
13 -18 22 -18 9 0 19 -16 26 -45 6 -25 15 -45 20 -45 5 0 12 -1 16 -2 10 -4
70 -67 96 -101 45 -60 66 -82 67 -69 0 7 -4 21 -9 31 -6 10 -11 29 -13 44 -2
14 -6 29 -10 32 -5 6 0 76 7 83 2 2 7 -18 11 -45 7 -42 8 -45 16 -23 5 18 7
12 4 -20 -4 -37 -3 -42 8 -28 13 18 14 122 1 253 -11 115 -11 145 0 142 6 -2
10 -24 11 -48 0 -24 5 -71 11 -104 12 -66 8 -200 -7 -254 -10 -38 -2 -148 11
-157 5 -3 10 0 10 5 3 26 4 30 12 37 4 4 7 -19 8 -52 0 -32 4 -68 9 -79 7 -18
9 -16 15 13 4 17 13 32 20 32 7 0 16 8 20 18 7 16 8 15 15 -3 5 -11 9 -15 9
-9 1 6 -6 28 -14 48 -9 20 -13 42 -9 48 8 12 43 -58 44 -86 0 -11 8 -28 17
-39 10 -10 25 -37 33 -60 17 -45 47 -67 36 -26 -18 69 -17 75 2 39 11 -19 18
-40 15 -46 -2 -7 1 -15 7 -19 15 -9 6 118 -15 218 -8 39 -13 72 -11 74 6 7 36
-58 36 -78 0 -10 7 -25 16 -34 9 -9 19 -36 22 -61 2 -24 8 -44 12 -44 5 0 8
-15 8 -34 0 -19 3 -40 8 -47 4 -7 8 -26 10 -43 1 -17 7 -42 13 -56 10 -25 9
36 -2 157 -3 28 0 44 8 47 15 5 65 -62 65 -86 0 -9 5 -20 11 -24 28 -17 48
-92 54 -204 4 -63 11 -120 17 -127 5 -7 14 -59 18 -115 5 -57 11 -110 15 -119
3 -9 -1 -59 -11 -110 -17 -96 -27 -290 -14 -254 15 38 21 -8 18 -124 -2 -89 0
-111 11 -111 9 0 10 -4 4 -12 -13 -17 -23 -69 -12 -62 5 3 9 -2 9 -10 0 -9 -7
-16 -15 -16 -9 0 -15 -6 -14 -13 2 -6 -1 -57 -6 -112 -11 -139 -12 -165 -4
-165 4 0 10 6 12 13 2 6 3 -1 1 -16 -3 -23 0 -28 14 -25 12 2 20 20 29 62 13
68 34 90 46 48 13 -42 8 -207 -7 -231 -3 -5 5 -32 19 -59 14 -27 25 -54 25
-60 0 -5 6 -12 14 -15 9 -4 14 -28 15 -84 1 -43 5 -81 9 -85 9 -9 206 14 326
38 71 14 85 20 102 45 10 16 23 29 28 29 9 0 35 30 36 42 0 3 -8 4 -19 1 -10
-3 -22 0 -25 5 -9 14 22 42 38 36 9 -3 17 3 21 16 4 12 18 38 30 57 l24 34 15
-52 c9 -29 16 -74 16 -101 l0 -47 83 30 c153 56 317 140 333 170 16 32 18 77
4 99 -8 12 -10 11 -10 -6 0 -23 -39 -108 -46 -101 -6 6 20 140 30 156 4 6 1
11 -7 11 -7 0 -19 -12 -26 -27 -10 -21 -14 -24 -21 -13 -7 12 -11 10 -17 -8
-9 -23 -9 -23 -26 -4 -14 15 -16 25 -7 46 7 20 7 25 -1 20 -8 -4 -9 1 -4 17
14 43 12 153 -2 186 -11 23 -12 40 -5 65 8 29 6 38 -14 62 -22 25 -33 66 -17
66 4 0 17 -10 30 -22 13 -12 24 -20 26 -17 1 2 11 22 21 44 l19 40 8 -30 c5
-18 5 -32 -2 -36 -6 -3 -10 -9 -10 -13 0 -3 -2 -12 -5 -20 -6 -17 12 -56 26
-56 6 0 10 -9 10 -20 0 -11 4 -20 9 -20 5 0 7 8 4 19 -3 10 0 21 5 25 7 4 5
22 -4 51 -10 34 -11 53 -3 73 6 15 13 50 16 77 3 33 11 55 23 65 12 10 19 27
18 48 -1 18 7 41 17 52 22 24 32 104 15 115 -8 5 -18 1 -25 -8 -21 -29 -27
-19 -23 38 3 39 10 62 27 81 12 14 26 23 29 19 4 -4 2 -10 -5 -12 -19 -7 -4
-61 25 -92 13 -14 28 -36 33 -48 5 -13 15 -23 24 -23 8 0 15 -7 15 -16 0 -9 7
-22 17 -29 13 -9 17 -36 21 -126 7 -153 6 -193 -7 -197 -20 -7 -12 -24 8 -19
12 3 22 -1 26 -11 7 -19 -4 -102 -14 -102 -4 0 -9 -48 -10 -107 -1 -60 -4
-127 -6 -151 l-5 -43 46 32 c81 55 216 174 320 280 342 349 557 781 641 1284
14 85 18 165 18 355 0 274 -11 369 -70 597 -246 946 -1057 1647 -2027 1752
-113 13 -421 12 -523 0z m190 -69 c22 0 100 -43 86 -48 -6 -2 -35 3 -63 13
-28 9 -57 14 -65 11 -8 -3 -21 1 -29 9 -10 10 -36 15 -77 16 -34 0 -71 5 -82
10 -13 6 14 8 80 4 58 -3 106 -1 115 5 11 7 16 5 18 -5 2 -8 10 -15 17 -15z
m-282 3 c-7 -2 -19 -2 -25 0 -7 3 -2 5 12 5 14 0 19 -2 13 -5z m-86 -59 c-3
-3 -12 -4 -19 -1 -8 3 -5 6 6 6 11 1 17 -2 13 -5z m-153 -77 c-33 -31 -61 -54
-63 -52 -6 7 37 55 75 86 59 47 51 25 -12 -34z m127 43 c-25 -6 -42 -30 -22
-30 6 0 11 -4 11 -9 0 -6 -12 -9 -26 -8 -20 2 -30 -5 -42 -29 -16 -29 -84 -88
-119 -101 -26 -10 31 62 104 133 54 52 68 60 91 56 l27 -6 -24 -6z m-291 6 c0
-3 -4 -8 -10 -11 -5 -3 -10 -1 -10 4 0 6 5 11 10 11 6 0 10 -2 10 -4z m35
-105 c-16 -33 -29 -39 -41 -19 -7 11 44 64 53 54 2 -2 -3 -18 -12 -35z m345
30 c0 -5 -11 -11 -25 -13 -24 -5 -32 2 -18 15 9 10 43 8 43 -2z m50 -25 c0 -3
-4 -8 -10 -11 -5 -3 -10 -1 -10 4 0 6 5 11 10 11 6 0 10 -2 10 -4z m-843 -242
c-3 -3 -12 -4 -19 -1 -8 3 -5 6 6 6 11 1 17 -2 13 -5z m-33 -11 c4 -5 24 -13
44 -19 l37 -10 -37 -8 c-21 -4 -38 -11 -38 -16 0 -6 -21 -10 -46 -10 -39 0
-44 2 -35 14 6 8 10 20 9 27 -2 7 8 16 22 20 35 10 36 10 44 2z m-199 -36
c-32 -22 -49 -25 -75 -14 -23 10 -21 11 25 17 28 4 54 8 60 8 5 1 1 -4 -10
-11z m-55 -43 c0 -2 -9 -4 -21 -4 -11 0 -18 4 -14 10 5 8 35 3 35 -6z m1183
-110 c6 1 9 1 5 -1 -5 -3 -8 -11 -8 -19 0 -9 5 -12 12 -8 7 4 8 3 4 -5 -6 -9
-13 -9 -30 2 -15 10 -27 12 -39 6 -14 -8 -15 -6 -10 8 11 29 36 44 46 28 4 -8
13 -13 20 -11z m153 18 c15 -10 26 -41 30 -84 3 -29 0 -38 -12 -38 -8 0 -12
-4 -9 -10 3 -5 -8 -4 -25 4 -17 7 -38 25 -46 40 -14 28 -10 51 7 41 5 -4 9 1
9 10 0 15 19 44 30 44 3 1 10 -3 16 -7z m784 -19 c2 -2 -1 -7 -7 -11 -8 -5 6
-13 34 -22 45 -13 46 -14 23 -24 -35 -14 -36 -16 -20 -26 13 -8 12 -11 -5 -24
-19 -13 -19 -15 -2 -21 9 -4 24 -4 32 -1 9 3 33 0 54 -7 40 -14 88 -6 76 13
-4 6 -11 8 -16 5 -16 -11 -10 5 17 40 l26 34 36 -16 c20 -8 57 -25 82 -36 25
-12 51 -21 58 -20 6 0 19 -14 28 -32 9 -21 36 -46 69 -67 37 -23 56 -41 60
-60 4 -15 13 -32 21 -39 8 -7 14 -28 13 -53 -1 -22 -4 -32 -6 -22 -6 24 -51
66 -71 66 -11 0 -13 -8 -9 -35 3 -19 4 -35 1 -35 -3 0 -27 11 -54 25 -28 14
-50 21 -50 15 0 -6 -11 -8 -25 -5 -14 3 -36 7 -50 10 -14 3 -25 11 -25 19 0 8
-8 12 -23 9 -17 -3 -36 7 -72 41 -26 25 -42 46 -34 46 8 0 15 9 15 20 0 11 -5
19 -11 19 -22 -3 -35 1 -35 11 0 6 10 11 23 11 13 1 6 5 -18 11 -81 18 -95 20
-95 11 0 -23 -197 -34 -210 -13 -4 7 -15 10 -24 7 -19 -7 -21 4 -5 20 9 9 1 9
-27 2 -96 -23 -94 -23 -94 0 0 15 6 21 23 22 12 0 16 3 10 6 -10 3 -9 11 2 33
16 31 83 68 145 79 34 7 130 3 140 -6z m167 -69 c-3 -3 -12 -4 -19 -1 -8 3 -5
6 6 6 11 1 17 -2 13 -5z m-1267 -66 c0 -11 -28 -10 -51 2 -15 9 -17 13 -7 24
11 11 17 11 35 -3 12 -9 23 -19 23 -23z m989 -102 c10 -9 23 -16 29 -16 7 0
12 -4 12 -10 0 -5 7 -10 15 -10 8 0 15 -6 16 -12 0 -10 2 -10 6 0 7 18 23 4
23 -21 0 -14 3 -18 8 -10 13 20 70 -16 152 -95 53 -52 71 -76 61 -80 -8 -3
-17 0 -19 7 -3 9 -7 9 -18 0 -11 -9 -14 -8 -14 2 0 8 -11 19 -24 25 -22 10
-24 9 -28 -17 -3 -16 -1 -29 3 -29 8 0 -21 -122 -46 -197 -8 -26 -10 -45 -4
-48 5 -4 5 -13 -1 -25 -7 -13 -7 -21 1 -26 9 -5 7 -11 -5 -19 -15 -12 -15 -14
-1 -29 9 -9 18 -35 20 -59 12 -129 22 -188 33 -199 9 -9 12 -9 12 1 0 24 44 6
62 -25 17 -29 17 -31 0 -48 -9 -9 -26 -23 -37 -31 -16 -11 -18 -17 -9 -32 6
-10 22 -21 35 -25 147 -40 192 -67 232 -142 32 -59 31 -233 -1 -323 -12 -34
-22 -86 -22 -115 0 -74 -25 -171 -46 -183 -10 -5 -34 -24 -53 -41 -37 -31
-144 -96 -171 -102 -51 -12 -150 -12 -245 2 -60 8 -119 14 -130 12 -11 -2 -28
2 -37 7 -11 8 -24 8 -40 0 -16 -7 -30 -8 -41 -1 -10 5 -28 8 -40 7 -12 -1 -31
1 -42 5 -53 20 -72 25 -97 24 -34 -1 -139 60 -146 85 -2 9 -11 17 -18 17 -8 0
-14 7 -14 15 0 8 -3 15 -7 15 -18 0 -73 176 -73 233 0 15 -7 42 -16 58 -8 17
-13 36 -11 42 6 19 -42 107 -59 107 -17 0 -17 0 0 -36 8 -16 16 -51 20 -79 5
-42 4 -46 -5 -22 -6 15 -15 25 -19 22 -17 -10 -29 33 -32 109 -2 42 -7 76 -11
76 -5 0 -6 4 -2 10 10 16 -23 83 -39 77 -11 -4 -15 6 -18 39 -2 25 1 49 7 55
6 6 6 15 -1 27 -6 9 -19 50 -29 90 -16 68 -16 78 -2 135 9 34 18 92 21 129 3
37 12 81 21 97 8 17 15 41 15 55 0 28 19 77 35 88 20 15 26 7 20 -24 l-6 -33
41 45 c22 25 49 61 59 80 11 19 29 45 40 57 12 12 21 27 21 33 0 5 4 10 8 10
5 0 15 11 22 25 7 13 28 31 47 40 35 17 82 63 95 93 6 12 7 10 5 -8 -2 -23 1
-25 38 -21 22 1 42 7 45 11 5 7 69 15 80 10 3 -2 23 -4 45 -6 22 -2 51 -5 64
-6 20 -2 29 5 45 36 18 33 21 36 24 18 2 -14 11 -22 23 -22 16 0 19 -7 19 -47
0 -27 5 -55 11 -63 9 -13 10 -12 5 2 -7 23 9 32 24 13 18 -22 27 -19 33 11 5
29 -15 53 -46 55 -17 1 -18 2 -4 6 14 4 10 11 -22 42 -22 21 -54 44 -73 51
-77 32 -46 50 75 45 54 -2 84 -8 96 -19z m691 -36 c0 -5 -2 -10 -4 -10 -3 0
-8 5 -11 10 -3 6 -1 10 4 10 6 0 11 -4 11 -10z m-730 -120 c0 -5 -2 -10 -4
-10 -3 0 -8 5 -11 10 -3 6 -1 10 4 10 6 0 11 -4 11 -10z m-658 -37 c-6 -2 -10
-9 -7 -14 3 -4 -9 -22 -27 -38 -21 -20 -28 -31 -18 -31 13 0 13 -1 0 -10 -9
-6 -17 -5 -22 3 -6 9 -8 9 -8 -1 0 -20 -50 -82 -66 -82 -7 0 -21 -11 -30 -25
l-17 -26 -24 23 c-16 15 -23 30 -20 45 4 19 2 21 -10 11 -8 -6 -20 -25 -28
-42 -9 -21 -14 -25 -14 -13 -1 10 8 37 19 59 23 47 19 59 -10 33 -11 -10 -20
-13 -20 -7 0 6 19 26 43 46 31 26 56 37 95 42 45 6 52 4 52 -10 0 -10 4 -15
10 -11 5 3 7 12 3 21 -4 12 0 14 20 9 17 -5 34 -1 49 9 12 9 27 16 33 15 5 0
4 -3 -3 -6z m-1514 -45 c-3 -7 -12 -14 -21 -16 -12 -2 -15 1 -11 12 7 19 38
22 32 4z m2562 -38 c0 -5 -4 -10 -10 -10 -5 0 -10 5 -10 10 0 6 5 10 10 10 6
0 10 -4 10 -10z m-2627 -24 c-15 -14 -30 -20 -31 -15 -6 15 19 39 40 39 16 0
15 -3 -9 -24z m-46 -36 c-3 -13 0 -20 9 -20 8 0 14 5 14 11 0 5 4 7 10 4 5 -3
20 1 32 9 32 22 39 20 26 -9 -6 -13 -15 -22 -20 -19 -4 3 -26 -8 -47 -25 -21
-17 -48 -31 -60 -31 -12 0 -21 -5 -21 -12 0 -6 -2 -9 -5 -7 -8 8 31 100 46
110 20 13 22 11 16 -11z m3097 -27 c4 -16 18 -55 30 -88 13 -33 27 -71 30 -85
6 -23 6 -23 -5 -6 -7 11 -28 35 -48 53 -33 30 -36 38 -38 90 -1 32 1 61 4 66
8 13 20 -1 27 -30z m-2084 -33 c0 -5 -5 -10 -11 -10 -5 0 -7 5 -4 10 3 6 8 10
11 10 2 0 4 -4 4 -10z m-669 -100 c5 17 7 8 7 -30 0 -45 -2 -50 -8 -25 -8 29
-8 29 -10 -10 -2 -22 -2 -50 -1 -63 2 -18 -2 -23 -16 -20 -10 2 -16 11 -14 19
3 13 6 40 11 129 l2 35 11 -30 11 -30 7 25z m2744 -80 l7 -25 13 25 c13 23 14
17 11 -56 -4 -81 -19 -130 -37 -119 -5 4 -9 -3 -9 -14 0 -11 -14 -35 -30 -53
-29 -32 -31 -32 -45 -14 -17 23 -11 52 16 75 40 35 79 151 50 151 -8 0 -41
-76 -56 -127 -9 -33 -22 -28 -28 10 -4 23 1 42 19 69 13 20 28 57 35 82 10 40
13 44 29 33 11 -6 22 -23 25 -37z m-2815 -40 c0 -5 -4 -10 -9 -10 -6 0 -13 5
-16 10 -3 6 1 10 9 10 9 0 16 -4 16 -10z m2896 -34 c-6 -33 -22 -54 -32 -43
-3 2 3 23 12 46 19 49 29 47 20 -3z m-2925 14 c11 0 19 -4 19 -10 0 -5 -9 -10
-21 -10 -11 0 -17 -4 -14 -10 3 -5 1 -10 -4 -10 -6 0 -11 6 -11 14 0 20 -43
29 -53 11 -12 -22 -27 -18 -27 6 0 20 4 21 46 15 26 -3 55 -6 65 -6z m144 -10
c3 -5 2 -10 -4 -10 -5 0 -13 5 -16 10 -3 6 -2 10 4 10 5 0 13 -4 16 -10z
m-444 -44 c-8 -10 -8 -16 1 -23 21 -16 58 -22 58 -9 0 12 39 40 46 33 8 -8 -8
-37 -21 -37 -7 0 -18 -6 -24 -14 -12 -14 -51 -10 -51 5 0 5 -7 9 -15 9 -18 0
-20 36 -2 54 15 17 23 0 8 -18z m384 14 c3 -5 1 -10 -4 -10 -6 0 -11 5 -11 10
0 6 2 10 4 10 3 0 8 -4 11 -10z m133 -12 c20 -20 13 -28 -13 -16 -14 6 -25 15
-25 20 0 12 24 10 38 -4z m-8 -43 c16 -9 19 -14 9 -15 -8 0 -24 7 -35 15 -24
18 -7 19 26 0z m840 -1 c0 -8 -4 -12 -10 -9 -5 3 -10 10 -10 16 0 5 5 9 10 9
6 0 10 -7 10 -16z m-91 -59 l0 -20 -9 20 c-5 11 -9 29 -9 40 l0 20 9 -20 c5
-11 9 -29 9 -40z m-659 35 c8 -5 11 -10 5 -10 -5 0 -17 5 -25 10 -8 5 -10 10
-5 10 6 0 17 -5 25 -10z m700 -16 c0 -8 4 -13 9 -10 5 4 12 0 14 -6 3 -7 6 -3
6 10 1 12 4 22 9 22 4 0 8 -71 9 -158 2 -149 -5 -170 -22 -68 -6 38 -19 39
-28 1 -3 -13 -5 -10 -6 11 -1 20 5 34 14 38 20 7 20 46 -1 46 -8 0 -13 3 -10
8 2 4 1 35 -3 69 -4 34 -4 60 1 57 4 -3 8 -12 8 -20z m-1260 6 c0 -5 -4 -10
-10 -10 -5 0 -10 5 -10 10 0 6 5 10 10 10 6 0 10 -4 10 -10z m887 -16 c3 -9 2
-19 -4 -23 -5 -3 -13 -15 -16 -25 -12 -30 -20 -10 -13 29 7 37 22 46 33 19z
m-660 -20 c-3 -3 -12 -4 -19 -1 -8 3 -5 6 6 6 11 1 17 -2 13 -5z m-51 -22
c-10 -16 -45 -22 -39 -6 2 7 11 10 19 7 8 -3 14 1 14 8 0 7 3 10 6 6 3 -3 3
-10 0 -15z m355 -49 c-12 -20 -14 -14 -5 12 4 9 9 14 11 11 3 -2 0 -13 -6 -23z
m-708 10 c-7 -2 -13 -12 -13 -20 0 -9 -3 -14 -6 -10 -10 10 4 37 18 36 10 0
10 -2 1 -6z m297 0 c0 -5 -7 -17 -15 -27 -15 -20 -20 -10 -9 18 6 16 24 22 24
9z m1089 -71 c1 -7 -3 -10 -9 -7 -5 3 -10 18 -9 33 0 24 1 25 9 7 5 -11 9 -26
9 -33z m-1121 -12 c-5 -17 -15 -33 -21 -37 -7 -4 -8 0 -3 13 5 10 11 27 13 37
3 9 9 17 14 17 4 0 3 -14 -3 -30z m570 -88 c11 -15 17 -33 14 -41 -3 -9 -9 -4
-17 15 -13 29 -13 28 -8 -11 3 -22 14 -57 24 -77 11 -21 19 -44 19 -52 0 -10
6 -13 15 -10 9 4 15 0 15 -10 0 -9 -4 -16 -10 -16 -12 0 -71 -86 -64 -93 3 -3
-1 -16 -9 -29 -8 -12 -18 -36 -21 -52 -6 -22 -10 -26 -16 -16 -12 19 -37 -44
-56 -140 -8 -41 -17 -85 -19 -97 -4 -15 -12 -21 -26 -20 -21 1 -21 4 -15 103
5 64 4 104 -3 108 -5 4 -12 -17 -16 -49 -4 -30 -12 -58 -17 -62 -7 -4 -8 14
-3 52 6 49 4 57 -8 52 -11 -4 -13 0 -10 14 3 10 9 16 14 13 5 -3 9 -1 9 4 0 6
-6 12 -14 15 -28 11 -32 107 -4 107 6 0 8 -11 5 -28 -6 -28 3 -52 19 -55 5 -1
8 -10 7 -20 -2 -10 2 -15 7 -12 6 3 10 15 10 25 0 10 5 22 10 25 6 3 10 12 10
18 0 7 -7 3 -15 -7 -13 -17 -15 -17 -20 -3 -9 22 13 60 31 53 9 -3 14 1 14 13
0 10 7 34 15 54 8 19 12 37 8 40 -7 8 23 74 38 83 19 12 31 57 17 66 -9 6 -5
7 10 3 28 -8 28 -1 0 25 -25 23 -17 40 8 19 16 -13 17 -11 11 23 -3 20 -3 47
1 60 5 19 7 16 14 -20 4 -23 16 -55 26 -70z m689 16 c-3 -8 -6 -5 -6 6 -1 11
2 17 5 13 3 -3 4 -12 1 -19z m-1618 -102 c13 -30 18 -54 12 -63 -9 -18 -46 68
-56 132 l-6 40 15 -30 c8 -16 24 -52 35 -79z m1651 52 c0 -36 -4 -35 -14 5 -4
16 -2 27 4 27 5 0 10 -14 10 -32z m-814 0 c-9 -13 -20 -33 -25 -45 -6 -11 -15
-24 -21 -28 -5 -3 -7 -12 -4 -18 5 -9 4 -9 -5 -1 -9 8 -4 23 21 62 18 28 37
52 42 52 5 0 1 -10 -8 -22z m387 -40 c14 -24 27 -56 31 -73 l6 -30 -17 30
c-10 17 -18 32 -18 35 0 3 -9 19 -18 37 -9 18 -17 34 -17 38 0 14 11 1 33 -37z
m364 -35 c-3 -10 -5 -4 -5 12 0 17 2 24 5 18 2 -7 2 -21 0 -30z m-188 -45 c-1
-24 -3 -27 -6 -10 -2 12 -9 20 -14 17 -5 -4 -9 -2 -9 4 0 8 9 14 28 20 1 1 1
-14 1 -31z m231 -9 c0 -5 -4 -9 -10 -9 -5 0 -10 7 -10 16 0 8 5 12 10 9 6 -3
10 -10 10 -16z m-1603 -31 c-3 -7 -5 -2 -5 12 0 14 2 19 5 13 2 -7 2 -19 0
-25z m753 -13 c-6 -8 -9 -18 -6 -23 3 -6 -1 -16 -10 -23 -13 -11 -14 -9 -8 17
9 37 13 44 26 44 7 0 6 -5 -2 -15z m936 -21 c-3 -8 -1 -25 6 -37 10 -20 10
-21 -5 -8 -19 15 -23 61 -6 61 6 0 8 -7 5 -16z m-1569 -76 c-3 -8 -6 -5 -6 6
-1 11 2 17 5 13 3 -3 4 -12 1 -19z m60 -45 c4 -10 17 -34 29 -54 l22 -36 -21
2 c-11 1 -26 10 -31 20 -6 11 -19 28 -28 38 -18 21 -14 47 8 47 8 0 18 -8 21
-17z m1330 -65 c-3 -8 -6 -5 -6 6 -1 11 2 17 5 13 3 -3 4 -12 1 -19z m255 -3
c3 -14 1 -28 -3 -31 -5 -3 -9 9 -9 25 0 38 6 40 12 6z m-205 -47 c-2 -13 -4
-3 -4 22 0 25 2 35 4 23 2 -13 2 -33 0 -45z m-477 22 c0 -5 -5 -10 -11 -10 -5
0 -7 5 -4 10 3 6 8 10 11 10 2 0 4 -4 4 -10z m569 -55 c0 -5 -4 -3 -9 5 -5 8
-9 22 -9 30 0 16 17 -16 18 -35z m-89 -35 c0 -29 -4 -40 -15 -40 -18 0 -21 50
-3 68 17 17 18 16 18 -28z m-1211 -28 c25 -21 61 -48 79 -61 18 -13 31 -25 29
-28 -12 -12 -150 85 -161 113 -9 22 5 16 53 -24z m-172 6 c-3 -8 -6 -5 -6 6
-1 11 2 17 5 13 3 -3 4 -12 1 -19z m1663 -48 c0 -5 -4 -10 -10 -10 -5 0 -10 5
-10 10 0 6 5 10 10 10 6 0 10 -4 10 -10z m-1225 -316 c7 -94 -9 -73 -19 26 -4
36 -10 74 -12 85 -3 15 -1 13 10 -6 8 -14 17 -61 21 -105z m5 -98 c0 -8 -4
-18 -10 -21 -5 -3 -10 3 -10 14 0 12 5 21 10 21 6 0 10 -6 10 -14z m-12 -101
c-3 -3 -9 2 -12 12 -6 14 -5 15 5 6 7 -7 10 -15 7 -18z m1831 -20 c-24 -40
-33 -45 -23 -12 8 26 23 47 35 47 5 0 -1 -16 -12 -35z m931 -15 c0 -11 -4 -20
-9 -20 -5 0 -7 9 -4 20 3 11 7 20 9 20 2 0 4 -9 4 -20z m-2451 -44 c13 -13 24
-37 26 -53 1 -15 6 -37 10 -48 8 -17 7 -18 -7 -7 -8 7 -18 29 -21 49 -4 20
-16 46 -28 59 -13 13 -18 24 -12 24 5 0 20 -11 32 -24z m2443 -32 c1 -44 -12
-92 -26 -97 -11 -4 -12 3 -5 34 5 21 9 42 8 46 -1 5 -1 21 0 38 1 38 22 20 23
-21z m-125 -41 c-9 -9 -20 -13 -24 -9 -4 4 0 12 10 17 9 6 14 16 11 22 -5 8
-3 8 7 -1 11 -10 10 -15 -4 -29z m-827 1 c0 -8 -4 -14 -10 -14 -5 0 -10 9 -10
21 0 11 5 17 10 14 6 -3 10 -13 10 -21z m-1300 -21 c0 -5 -5 -15 -10 -23 -8
-12 -10 -11 -10 8 0 12 5 22 10 22 6 0 10 -3 10 -7z m116 -109 c-3 -42 -9 -80
-11 -84 -3 -5 -1 -10 3 -12 5 -1 12 -25 15 -51 4 -31 3 -46 -3 -42 -6 3 -10
21 -10 38 l-1 32 -13 -25 c-13 -22 -14 -17 -11 50 3 96 15 170 27 170 7 0 8
-29 4 -76z m1961 34 c-3 -8 -6 -5 -6 6 -1 11 2 17 5 13 3 -3 4 -12 1 -19z
m-531 -83 c51 -53 91 -112 81 -122 -6 -5 -102 104 -129 146 -30 47 -11 37 48
-24z m-1538 27 c8 -5 10 -16 6 -27 -5 -12 -4 -16 3 -12 15 9 23 -29 10 -42 -8
-8 -5 -11 11 -11 24 0 24 -1 26 -110 4 -148 5 -153 26 -147 10 3 19 2 18 -2
-1 -3 1 -27 5 -52 9 -54 -7 -109 -25 -91 -20 20 -27 13 -22 -20 10 -59 13
-118 6 -118 -4 0 -13 14 -20 30 -13 29 -32 41 -32 20 0 -5 -4 -10 -10 -10 -5
0 -10 20 -10 45 0 29 4 45 12 45 8 0 6 7 -5 18 -16 15 -19 15 -27 2 -5 -8 -10
-25 -10 -38 0 -19 -2 -21 -14 -10 -10 9 -11 17 -3 26 14 17 9 244 -6 269 -16
25 -17 80 -3 108 9 17 16 40 16 53 0 19 3 21 19 12 30 -16 35 -12 17 15 -11
16 -12 25 -5 25 8 0 8 4 -1 15 -13 16 -3 20 18 7z m-591 -34 c-3 -8 -6 -5 -6
6 -1 11 2 17 5 13 3 -3 4 -12 1 -19z m2832 -81 c1 -16 -3 -26 -9 -22 -5 3 -10
17 -10 31 0 14 -4 22 -10 19 -14 -9 -12 3 3 19 10 12 13 11 19 -3 4 -9 7 -29
7 -44z m-1908 -47 c8 -6 49 -150 49 -175 0 -8 -4 -15 -10 -15 -5 0 -10 9 -10
20 0 11 -4 20 -10 20 -5 0 -10 -7 -10 -16 0 -8 -4 -13 -9 -10 -12 8 -29 87
-36 171 -6 70 -6 70 11 40 9 -16 20 -32 25 -35z m-1068 -20 c-3 -11 -9 -20
-14 -20 -11 0 -11 3 -3 24 9 23 23 20 17 -4z m2765 -7 c2 -12 -3 -20 -13 -20
-9 0 -15 9 -15 25 0 29 24 25 28 -5z m-2788 -33 c0 -5 -5 -10 -11 -10 -5 0 -7
5 -4 10 3 6 8 10 11 10 2 0 4 -4 4 -10z m2418 -32 c11 -18 28 -53 36 -78 23
-63 31 -243 17 -338 -23 -149 -33 -197 -46 -222 -11 -21 -12 -12 -9 65 2 50 4
90 4 90 1 0 2 17 4 38 2 31 0 37 -17 37 -14 0 -17 4 -12 18 21 56 25 129 10
205 -5 24 -4 37 3 37 6 0 12 -10 14 -22 2 -12 9 -23 16 -26 16 -5 7 58 -14
100 -8 15 -14 34 -14 43 0 9 -7 29 -15 44 -12 24 -11 41 1 41 1 0 11 -15 22
-32z m-2002 -132 c6 -26 5 -27 -13 -17 -15 7 -19 17 -15 36 5 31 18 22 28 -19z
m1534 25 c0 -5 -7 -11 -15 -15 -15 -5 -20 5 -8 17 9 10 23 9 23 -2z m9 -52
c-27 -17 -41 -9 -18 10 14 11 26 15 28 9 2 -6 -3 -14 -10 -19z m-1899 -3 c0
-2 -7 -9 -15 -16 -12 -10 -15 -10 -15 4 0 9 7 16 15 16 8 0 15 -2 15 -4z
m2580 -6 c0 -5 -2 -10 -4 -10 -3 0 -8 5 -11 10 -3 6 -1 10 4 10 6 0 11 -4 11
-10z m-661 -42 c-11 -45 3 -67 28 -46 9 8 13 7 13 -2 0 -7 21 -38 46 -69 56
-67 75 -109 75 -164 1 -132 -2 -177 -12 -182 -6 -5 -8 -27 -4 -60 5 -36 3 -55
-5 -60 -9 -6 -9 -9 1 -15 10 -7 9 -12 -3 -24 -14 -14 -16 -12 -21 17 -2 18 -1
33 4 35 5 2 9 11 8 20 0 11 -2 12 -6 5 -9 -25 -30 -14 -27 14 1 15 -4 32 -12
37 -8 6 -16 25 -17 41 -4 30 -22 92 -38 130 -5 11 -11 40 -12 65 -2 25 -7 52
-10 60 -3 8 -8 29 -11 45 -12 70 -24 116 -35 128 -8 11 -6 20 10 41 29 37 38
32 28 -16z m-959 -17 c0 -6 -6 -11 -14 -11 -16 0 -29 27 -20 41 6 10 34 -14
34 -30z m-1029 -45 c-14 -30 -27 -54 -28 -52 -6 6 20 77 33 91 24 23 23 19 -5
-39z m2554 -15 c3 -5 1 -12 -5 -16 -5 -3 -10 1 -10 9 0 18 6 21 15 7z m20 -66
l-15 -40 5 44 c6 49 18 75 23 51 1 -9 -4 -33 -13 -55z m55 55 c0 -5 -3 -10 -7
-10 -5 0 -9 -19 -10 -41 0 -23 -7 -46 -13 -53 -10 -9 -11 1 -6 43 4 30 9 58
12 63 7 11 24 10 24 -2z m-913 -92 c-3 -8 -6 -5 -6 6 -1 11 2 17 5 13 3 -3 4
-12 1 -19z m863 -58 c0 -5 -2 -10 -4 -10 -3 0 -8 5 -11 10 -3 6 -1 10 4 10 6
0 11 -4 11 -10z m-1576 -95 c-4 -8 -8 -15 -10 -15 -2 0 -4 7 -4 15 0 8 4 15
10 15 5 0 7 -7 4 -15z m35 -37 c1 -5 -3 -8 -9 -8 -5 0 -10 12 -9 28 0 24 1 25
9 7 5 -11 9 -23 9 -27z m354 -379 c4 -15 1 -19 -11 -17 -21 4 -29 38 -9 38 8
0 17 -9 20 -21z"/>
<path d="M3410 4149 c0 -15 5 -19 15 -15 8 3 15 1 15 -4 0 -6 7 -10 15 -10 14
0 13 3 -2 25 -22 30 -43 32 -43 4z"/>
<path d="M3380 4091 c0 -5 5 -13 10 -16 6 -3 10 -2 10 4 0 5 -4 13 -10 16 -5
3 -10 2 -10 -4z"/>
<path d="M3381 4030 c0 -14 4 -34 9 -45 7 -17 9 -16 9 10 0 17 -4 37 -9 45 -8
12 -10 10 -9 -10z"/>
<path d="M3557 4000 c3 -11 7 -20 9 -20 2 0 4 9 4 20 0 11 -4 20 -9 20 -5 0
-7 -9 -4 -20z"/>
<path d="M3350 3981 c0 -6 4 -13 10 -16 6 -3 7 1 4 9 -7 18 -14 21 -14 7z"/>
<path d="M3350 3618 c-14 -6 -47 -14 -75 -19 -140 -21 -176 -29 -216 -47 -37
-17 -40 -20 -19 -21 14 0 68 5 120 13 52 7 114 12 136 10 28 -3 46 1 54 11 7
8 16 12 22 9 5 -3 15 0 23 6 11 9 12 17 4 31 -11 22 -14 22 -49 7z"/>
<path d="M2525 3520 c-4 -6 0 -19 9 -29 9 -10 13 -20 10 -23 -3 -4 2 -18 11
-32 16 -23 16 -26 1 -32 -13 -5 -9 -13 20 -42 20 -20 43 -47 52 -60 8 -12 17
-21 19 -18 9 9 -21 92 -45 125 -14 18 -35 54 -48 78 -13 26 -25 40 -29 33z"/>
<path d="M2875 3223 c9 -21 32 -29 60 -23 6 1 38 4 72 7 58 4 63 3 78 -21 19
-28 37 -31 119 -20 39 6 50 12 62 36 9 17 13 33 9 36 -3 3 -97 6 -208 6 l-203
1 11 -22z"/>
<path d="M3719 2954 c-11 -14 -9 -15 16 -12 16 1 30 9 33 16 6 18 -33 15 -49
-4z"/>
<path d="M3641 2756 l-94 -32 122 1 c66 0 121 3 121 7 0 4 8 9 18 12 10 3 18
15 18 26 0 17 -7 20 -46 19 -25 0 -87 -15 -139 -33z"/>
<path d="M3770 2690 c0 -5 5 -10 10 -10 6 0 10 5 10 10 0 6 -4 10 -10 10 -5 0
-10 -4 -10 -10z"/>
<path d="M2450 3940 c0 -5 4 -10 9 -10 6 0 13 5 16 10 3 6 -1 10 -9 10 -9 0
-16 -4 -16 -10z"/>
<path d="M1641 3111 c-9 -6 -10 -11 -3 -15 16 -10 2 -38 -16 -31 -11 4 -12 2
-4 -8 8 -9 8 -24 1 -50 -5 -21 -7 -42 -4 -47 3 -6 1 -10 -4 -10 -6 0 -11 -12
-10 -27 0 -24 1 -25 8 -8 4 11 17 20 27 20 10 0 19 7 20 15 3 41 34 85 34 48
0 -8 3 -8 9 -2 12 11 -19 124 -34 124 -5 0 -16 -4 -24 -9z"/>
<path d="M1972 1370 c0 -19 2 -27 5 -17 2 9 2 25 0 35 -3 9 -5 1 -5 -18z"/>
<path d="M1800 3501 c0 -6 5 -13 10 -16 6 -3 10 1 10 9 0 9 -4 16 -10 16 -5 0
-10 -4 -10 -9z"/>
<path d="M1910 3180 c0 -5 5 -10 10 -10 6 0 10 5 10 10 0 6 -4 10 -10 10 -5 0
-10 -4 -10 -10z"/>
<path d="M2090 2863 c0 -5 11 -26 25 -48 27 -45 35 -24 10 25 -14 27 -35 41
-35 23z"/>
<path d="M2180 2782 c0 -10 26 -65 48 -101 1 -2 4 -2 7 0 2 3 -2 16 -9 29 -7
14 -21 39 -30 55 -9 17 -16 24 -16 17z"/>
<path d="M2155 2710 c-3 -5 -1 -10 4 -10 6 0 11 5 11 10 0 6 -2 10 -4 10 -3 0
-8 -4 -11 -10z"/>
<path d="M2360 2585 c0 -8 5 -15 10 -15 6 0 10 7 10 15 0 8 -4 15 -10 15 -5 0
-10 -7 -10 -15z"/>
<path d="M2418 2555 c2 -25 9 -45 14 -45 6 0 8 13 4 31 -3 17 -6 38 -6 45 0 8
-3 14 -8 14 -4 0 -6 -20 -4 -45z"/>
<path d="M2281 2534 c0 -11 3 -14 6 -6 3 7 2 16 -1 19 -3 4 -6 -2 -5 -13z"/>
<path d="M2506 2427 c3 -10 9 -15 12 -12 3 3 0 11 -7 18 -10 9 -11 8 -5 -6z"/>
<path d="M2340 2410 c6 -11 13 -20 16 -20 2 0 0 9 -6 20 -6 11 -13 20 -16 20
-2 0 0 -9 6 -20z"/>
<path d="M2731 2354 c0 -11 3 -14 6 -6 3 7 2 16 -1 19 -3 4 -6 -2 -5 -13z"/>
<path d="M2751 1954 c0 -11 3 -14 6 -6 3 7 2 16 -1 19 -3 4 -6 -2 -5 -13z"/>
<path d="M2540 1840 c0 -13 18 -22 24 -11 3 5 -1 11 -9 15 -8 3 -15 1 -15 -4z"/>
<path d="M2405 1651 c5 -15 3 -26 -6 -31 -10 -7 -9 -13 4 -33 9 -14 25 -51 36
-83 20 -57 20 -58 21 -22 0 20 -4 38 -9 40 -6 2 -15 32 -20 67 -6 36 -16 69
-22 75 -8 8 -9 5 -4 -13z"/>
<path d="M4065 1620 c-4 -13 -3 -25 3 -29 15 -9 19 -43 5 -48 -7 -3 -13 0 -13
6 0 22 -30 10 -44 -17 -12 -23 -12 -31 0 -52 7 -14 14 -43 14 -65 1 -32 3 -36
10 -20 5 11 9 36 10 55 l2 35 11 -45 10 -45 14 45 c20 66 23 111 11 134 -7 12
-12 29 -13 38 -2 28 -13 32 -20 8z"/>
<path d="M2711 1545 c0 -5 6 -35 14 -65 11 -44 13 -49 14 -24 1 18 -6 47 -14
65 -8 19 -14 30 -14 24z"/>
<path d="M2661 1474 c0 -11 3 -14 6 -6 3 7 2 16 -1 19 -3 4 -6 -2 -5 -13z"/>
<path d="M2682 1365 c0 -16 2 -22 5 -12 2 9 2 23 0 30 -3 6 -5 -1 -5 -18z"/>
<path d="M4149 1265 c-1 -5 -1 -13 0 -17 0 -5 -3 -8 -8 -8 -13 0 -21 -42 -11
-59 7 -13 9 -10 10 12 0 16 4 26 9 23 12 -8 20 29 10 45 -5 8 -9 10 -10 4z"/>
<path d="M2133 1164 c-3 -8 -1 -20 6 -27 8 -8 11 -4 11 16 0 30 -7 35 -17 11z"/>
<path d="M4040 1136 c0 -9 5 -16 10 -16 6 0 10 4 10 9 0 6 -4 13 -10 16 -5 3
-10 -1 -10 -9z"/>
<path d="M4000 1113 c0 -10 6 -28 13 -39 6 -12 23 -41 35 -64 17 -29 26 -39
32 -30 6 10 9 9 14 -1 3 -8 4 2 1 21 -3 19 -5 49 -5 65 0 20 -3 26 -8 17 -7
-10 -11 -10 -22 3 -7 8 -19 15 -26 15 -8 0 -14 7 -14 15 0 8 -4 15 -10 15 -5
0 -10 -8 -10 -17z"/>
<path d="M2135 1060 c-3 -5 -1 -10 4 -10 6 0 11 5 11 10 0 6 -2 10 -4 10 -3 0
-8 -4 -11 -10z"/>
<path d="M4120 950 c0 -5 5 -10 10 -10 6 0 10 5 10 10 0 6 -4 10 -10 10 -5 0
-10 -4 -10 -10z"/>
<path d="M4023 897 c-6 -13 -8 -29 -3 -36 5 -9 9 -8 12 6 3 10 9 26 13 36 11
26 -10 20 -22 -6z"/>
<path d="M2060 876 c0 -8 5 -18 10 -21 6 -3 10 1 10 9 0 8 -4 18 -10 21 -5 3
-10 -1 -10 -9z"/>
<path d="M2811 864 c0 -11 3 -14 6 -6 3 7 2 16 -1 19 -3 4 -6 -2 -5 -13z"/>
<path d="M2100 848 c0 -32 15 -55 23 -35 7 19 -2 57 -14 57 -5 0 -9 -10 -9
-22z"/>
<path d="M2074 804 c3 -9 6 -18 6 -20 0 -3 4 -3 10 1 11 7 2 35 -12 35 -6 0
-7 -7 -4 -16z"/>
<path d="M2240 772 c0 -36 4 -52 16 -56 9 -3 20 -4 25 0 12 7 0 54 -23 83
l-18 24 0 -51z"/>
<path d="M3994 789 l-29 -32 33 19 c17 10 32 24 32 31 0 18 -3 17 -36 -18z"/>
<path d="M1707 754 c-4 -4 2 -14 14 -22 11 -8 23 -11 26 -8 4 3 1 6 -6 6 -7 0
-9 5 -5 12 4 6 3 8 -4 4 -5 -3 -12 -1 -14 5 -2 5 -7 7 -11 3z"/>
<path d="M2241 693 c-5 -11 -11 -41 -12 -66 -2 -26 -6 -47 -10 -47 -4 0 -9 -9
-12 -20 -9 -36 19 -22 36 18 27 62 25 165 -2 115z"/>
<path d="M2867 668 c-6 -48 -2 -59 18 -51 16 5 19 32 9 71 -10 34 -21 26 -27
-20z"/>
<path d="M2092 643 c-21 -56 -22 -63 -8 -63 9 0 17 16 21 41 8 49 2 60 -13 22z"/>
<path d="M2155 640 c3 -5 8 -10 11 -10 2 0 4 5 4 10 0 6 -5 10 -11 10 -5 0 -7
-4 -4 -10z"/>
<path d="M2130 616 c0 -14 -5 -28 -10 -31 -14 -9 -3 -25 17 -25 9 0 13 6 9 15
-3 8 -1 15 3 15 11 0 2 38 -10 46 -5 3 -9 -6 -9 -20z"/>
<path d="M2182 575 c0 -16 2 -22 5 -12 2 9 2 23 0 30 -3 6 -5 -1 -5 -18z"/>
<path d="M2630 498 c0 -16 5 -28 10 -28 13 0 13 20 0 40 -8 12 -10 9 -10 -12z"/>
</g>
</svg>
